<svg width="38" height="34" viewBox="0 0 38 34" fill="none" xmlns="http://www.w3.org/2000/svg">
<path d="M26.5604 5.51944L32.5111 11.5105C32.7618 11.7628 32.7618 12.1746 32.5111 12.427L18.1028 26.933L11.9806 27.6171C11.1625 27.7101 10.4698 27.0127 10.5622 26.1891L11.2417 20.0254L25.65 5.51944C25.9007 5.26704 26.3097 5.26704 26.5604 5.51944ZM37.2479 3.99844L34.0285 0.757179C33.0257 -0.252393 31.3962 -0.252393 30.3868 0.757179L28.0514 3.10842C27.8007 3.36081 27.8007 3.77261 28.0514 4.02501L34.0021 10.016C34.2528 10.2684 34.6618 10.2684 34.9125 10.016L37.2479 7.66478C38.2507 6.64856 38.2507 5.00801 37.2479 3.99844ZM25.3333 22.9877V29.7492H4.22222V8.49502H19.3826C19.5938 8.49502 19.7917 8.40867 19.9434 8.26255L22.5823 5.60578C23.0837 5.101 22.7274 4.24419 22.0215 4.24419H3.16667C1.4184 4.24419 0 5.6722 0 7.43231V30.8119C0 32.572 1.4184 34 3.16667 34H26.3889C28.1372 34 29.5556 32.572 29.5556 30.8119V20.3309C29.5556 19.6202 28.7045 19.2682 28.2031 19.7664L25.5642 22.4231C25.4191 22.5759 25.3333 22.7752 25.3333 22.9877Z" fill="black"/>
</svg>
