<svg width="28" height="34" viewBox="0 0 28 34" fill="none" xmlns="http://www.w3.org/2000/svg">
<path d="M6.62199 7.23119L5.83239 9.59999H9.60039V5.99999H8.33079C7.95275 5.99977 7.58424 6.11858 7.27752 6.33958C6.9708 6.56057 6.74145 6.87252 6.62199 7.23119ZM5.43399 10.8L5.42919 10.812L5.10999 10.8912L4.96359 10.9272C4.57404 11.0246 4.22825 11.2495 3.98124 11.5661C3.73422 11.8827 3.60017 12.2728 3.60039 12.6744V14.7C3.60039 14.892 3.66039 15.072 3.76479 15.2184C3.9803 14.5972 4.39383 14.064 4.94184 13.7007C5.48984 13.3374 6.14199 13.1641 6.79807 13.2074C7.45414 13.2507 8.07782 13.5083 8.57326 13.9406C9.0687 14.3729 9.40849 14.9559 9.54039 15.6H14.4604C14.5915 14.9552 14.9309 14.3714 15.4264 13.9384C15.9219 13.5055 16.5459 13.2474 17.2025 13.2041C17.8591 13.1607 18.5117 13.3344 19.0598 13.6983C19.608 14.0623 20.0212 14.5964 20.236 15.2184C20.3432 15.0668 20.4007 14.8857 20.4004 14.7V13.2444C20.4005 12.8476 20.2695 12.4618 20.0278 12.1471C19.786 11.8325 19.447 11.6065 19.0636 11.5044L16.4224 10.8H5.43399ZM15.448 9.59999L13.9612 6.92639C13.8055 6.6459 13.5777 6.41211 13.3013 6.24924C13.0249 6.08636 12.71 6.00031 12.3892 5.99999H10.8004V9.59999H15.448ZM21.6004 14.7C21.6004 15.1026 21.4847 15.4967 21.2671 15.8354C21.0494 16.1741 20.739 16.4431 20.3728 16.6104C20.2767 17.3125 19.9352 17.9579 19.4087 18.4322C18.8823 18.9066 18.2049 19.1793 17.4967 19.202C16.7884 19.2247 16.0949 18.996 15.5392 18.5563C14.9834 18.1167 14.6013 17.4945 14.4604 16.8H9.54039C9.39951 17.4945 9.01733 18.1167 8.46158 18.5563C7.90583 18.996 7.21239 19.2247 6.50412 19.202C5.79585 19.1793 5.11849 18.9066 4.59205 18.4322C4.06561 17.9579 3.72409 17.3125 3.62799 16.6104C3.26177 16.4431 2.95135 16.1741 2.7337 15.8354C2.51605 15.4967 2.40036 15.1026 2.40039 14.7V12.6744C2.40037 12.0366 2.60359 11.4154 2.98056 10.901C3.35754 10.3866 3.88864 10.0057 4.49679 9.81359L5.48439 6.85079C5.68361 6.25349 6.06571 5.73402 6.57657 5.36595C7.08743 4.99788 7.70115 4.79988 8.33079 4.79999H12.388C12.9231 4.79987 13.4486 4.9429 13.9098 5.21425C14.3711 5.48559 14.7513 5.87538 15.0112 6.34319L16.8616 9.67559L19.3732 10.3452C20.012 10.5155 20.5767 10.8921 20.9794 11.4163C21.3822 11.9406 21.6005 12.5833 21.6004 13.2444V14.7ZM6.60039 14.4C6.123 14.4 5.66516 14.5896 5.3276 14.9272C4.99003 15.2648 4.80039 15.7226 4.80039 16.2C4.80039 16.6774 4.99003 17.1352 5.3276 17.4728C5.66516 17.8103 6.123 18 6.60039 18C7.07778 18 7.53562 17.8103 7.87318 17.4728C8.21075 17.1352 8.40039 16.6774 8.40039 16.2C8.40039 15.7226 8.21075 15.2648 7.87318 14.9272C7.53562 14.5896 7.07778 14.4 6.60039 14.4ZM17.4004 14.4C16.923 14.4 16.4652 14.5896 16.1276 14.9272C15.79 15.2648 15.6004 15.7226 15.6004 16.2C15.6004 16.6774 15.79 17.1352 16.1276 17.4728C16.4652 17.8103 16.923 18 17.4004 18C17.8778 18 18.3356 17.8103 18.6732 17.4728C19.0107 17.1352 19.2004 16.6774 19.2004 16.2C19.2004 15.7226 19.0107 15.2648 18.6732 14.9272C18.3356 14.5896 17.8778 14.4 17.4004 14.4Z" fill="white"/>
</svg>



