<svg width="25" height="25" viewBox="0 0 25 25" fill="none" xmlns="http://www.w3.org/2000/svg">
<path d="M24.0595 25C16.3609 25 8.65074 25 0.952177 25C0.870895 24.9556 0.789613 24.9111 0.708331 24.8667C0.174192 24.5778 -0.0928768 24.0556 0.034852 23.5111C0.150969 23 0.592214 22.6556 1.20763 22.6111C1.38181 22.6 1.55599 22.5889 1.77661 22.5778C1.77661 18.4222 1.77661 14.2778 1.77661 10.2222C2.35719 10.0222 2.8565 9.84444 3.36741 9.67778C3.4603 9.64444 3.58803 9.61111 3.66932 9.63333C4.34279 9.83333 5.00466 10.0444 5.7362 10.2667C5.7362 10.3667 5.7362 10.5667 5.7362 10.7667C5.7362 13.5444 5.7362 16.3222 5.7362 19.1C5.7362 19.7778 6.00327 20.2667 6.53741 20.2778C7.80308 20.3333 9.06876 20.2889 10.3228 20.2889C10.3228 19.4333 10.3228 18.6444 10.3228 17.7333C9.88158 18.4333 9.52162 19.0111 9.15004 19.6C8.94103 19.9222 8.66235 20.1333 8.24433 20.0333C7.66374 19.9 7.46634 19.3667 7.80308 18.8C8.59268 17.5111 9.38227 16.2111 10.2299 14.9556C10.3925 14.7111 10.7989 14.5222 11.1124 14.4778C11.7162 14.4 12.3549 14.5222 12.9703 14.4444C14.1082 14.3 14.7933 14.7111 15.3042 15.6889C15.8616 16.7778 16.5931 17.7889 17.2434 18.8444C17.4872 19.2444 17.464 19.6333 17.0344 19.9222C16.6512 20.1889 16.1983 20.0667 15.8964 19.6333C15.7687 19.4556 15.6526 19.2556 15.5365 19.0667C15.2694 18.6556 15.014 18.2444 14.6772 17.7333C14.6772 18.6667 14.6772 19.4556 14.6772 20.3C15.7687 20.3 16.8254 20.3 17.882 20.3C18.9503 20.3 19.2754 19.9889 19.2754 18.9778C19.2754 16.2222 19.2754 13.4556 19.2754 10.7C19.2754 10.5 19.2754 10.3 19.2754 10.2444C20.0186 10.0222 20.6456 9.82222 21.2843 9.63333C21.3772 9.61111 21.4933 9.58889 21.5862 9.62222C22.1203 9.8 22.6545 9.98889 23.2466 10.2C23.2466 14.2667 23.2466 18.4 23.2466 22.5444C23.4905 22.5556 23.6995 22.5667 23.9085 22.5889C24.6168 22.6778 25.0813 23.2444 24.9884 23.9222C24.9187 24.5 24.5239 24.7778 24.0595 25Z" fill="white"/>
<path d="M21.7371 0C22.7357 0.333333 23.235 1.04444 23.5021 2C23.8969 3.44444 24.3846 4.86667 24.8374 6.3C25.1974 7.45555 24.8258 8.34444 23.8504 8.68889C22.8286 9.04444 21.9577 8.6 21.4468 7.42222C21.1217 8.27778 20.5759 8.83333 19.5773 8.78889C18.66 8.75555 18.1607 8.21111 17.8704 7.38889C17.5801 8.22222 17.0808 8.75555 16.1751 8.78889C15.1997 8.82222 14.6423 8.31111 14.3056 7.38889C13.9572 8.34444 13.3418 8.86667 12.32 8.77778C11.4956 8.7 11.0079 8.21111 10.7408 7.38889C10.3692 8.35555 9.73058 8.9 8.68553 8.77778C7.87271 8.67778 7.40824 8.16667 7.16439 7.38889C6.85088 8.26667 6.31674 8.81111 5.34135 8.78889C4.41242 8.77778 3.9015 8.25555 3.5996 7.4C3.28608 8.23333 2.78678 8.77778 1.85784 8.78889C0.638614 8.81111 -0.243875 7.78889 0.0812525 6.67778C0.580556 4.92222 1.16114 3.17778 1.70689 1.42222C1.93913 0.655555 2.56616 0.288889 3.27447 0C9.42867 0 15.5829 0 21.7371 0Z" fill="white"/>
<path d="M12.5058 13.8111C11.5769 13.8111 10.8221 12.9778 10.8454 11.9778C10.8686 10.9889 11.6001 10.2 12.5175 10.2C13.4464 10.2 14.2012 11.0333 14.1895 12.0333C14.1547 13.0222 13.4232 13.8111 12.5058 13.8111Z" fill="white"/>
</svg>
